<svg width="977" height="977" viewBox="0 0 977 977" fill="none" xmlns="http://www.w3.org/2000/svg">
<mask id="mask0_47_174" style="mask-type:alpha" maskUnits="userSpaceOnUse" x="0" y="0" width="977" height="977">
<path d="M791.897 105.924L537.256 290.932L963.921 600.926C972.626 564.085 977.015 526.357 977 488.502C977 333.691 904.599 195.488 791.897 105.924ZM742.26 71.2275C668.257 26.0546 581.365 0 488.5 0C388.697 0 295.806 30.1076 218.384 81.6844L315.695 381.15L742.26 71.2275ZM170.099 118.328C66.0143 207.981 0 340.672 0 488.5C0 533.925 6.25509 577.911 17.9085 619.668H333.008L170.099 118.328ZM37.8149 676.916C109.184 846.99 274.117 968.438 467.857 976.534L565.208 676.916H37.8149ZM528.429 975.359C720.486 959.748 881.468 832.57 946.318 658.893L691.426 473.702L528.429 975.359Z" fill="#756145"/>
</mask>
<g mask="url(#mask0_47_174)">
<rect width="977.027" height="977.027" fill="url(#paint0_linear_47_174)"/>
</g>
<defs>
<linearGradient id="paint0_linear_47_174" x1="0" y1="488.514" x2="977.027" y2="488.514" gradientUnits="userSpaceOnUse">
<stop stop-color="#756145"/>
<stop offset="1" stop-color="#3E2F19"/>
</linearGradient>
</defs>
</svg>
