<svg width="221" height="221" viewBox="0 0 221 221" fill="none" xmlns="http://www.w3.org/2000/svg">
<g style="mix-blend-mode:luminosity">
<path d="M147.325 6.3092V132.599C198.885 132.599 220.982 158.604 220.982 110.499C220.982 62.394 190.236 21.4775 147.325 6.3092Z" fill="#E83A00"/>
<path d="M219.142 90.298L38.6796 194.488C73.2708 224.065 124.079 230.234 165.739 206.182C207.4 182.129 227.461 135.044 219.142 90.298Z" fill="#FF650C"/>
<path d="M182.313 194.488L1.85079 90.298C-6.46821 135.043 13.5936 182.129 55.2533 206.182C96.9136 230.235 147.722 224.065 182.313 194.488Z" fill="#FF8D00"/>
<path d="M73.6676 214.689V6.3092C30.7578 21.4775 0.0107422 62.394 0.0107422 110.499C0.0107422 158.604 30.7578 199.521 73.6676 214.689Z" fill="#FFBD00"/>
<path d="M1.85187 130.7L147.325 46.7113V6.34209C117.937 -4.0367 84.3638 -1.98943 55.2549 14.8165C13.5947 38.8688 -6.4667 85.9547 1.85187 130.7Z" fill="#FFD805"/>
<path d="M38.6796 26.5096L147.325 89.236V6.31529C109.839 -6.98269 68.31 1.17402 38.6796 26.5096Z" fill="#FFEE4C"/>
<path d="M147.325 6.3092V6.31525C147.445 6.35755 147.565 6.39726 147.684 6.43999C147.564 6.39726 147.446 6.3515 147.325 6.3092Z" fill="#FFE359"/>
</g>
</svg>
